<?xml version="1.0" encoding="UTF-8"?>
<svg version="1.1" xmlns="http://www.w3.org/2000/svg" width="2000" height="2267">
<path d="M0 0 C634.26 0 1268.52 0 1922 0 C1917.26093619 21.32578714 1912.52491013 42.607735 1907.33410645 63.82147217 C1906.63325081 66.68746466 1905.93346218 69.55371335 1905.23474121 72.42022705 C1902.504714 83.61715225 1899.75704786 94.80969958 1897 106 C1896.79589256 106.82853989 1896.59178513 107.65707977 1896.38149261 108.51072693 C1883.08462688 162.47216873 1869.30864165 216.29795851 1855 270 C1854.71106747 271.08451195 1854.71106747 271.08451195 1854.41629791 272.19093323 C1838.53943339 331.76832161 1822.1103688 391.19506734 1805.02679443 450.43780518 C1803.9809516 454.06608343 1802.93686216 457.69486282 1801.89306641 461.32373047 C1784.89155733 520.40327261 1767.25654384 579.2958989 1749 638 C1748.52007599 639.54388397 1748.52007599 639.54388397 1748.03045654 641.11895752 C1720.35499874 730.11471696 1691.38182976 818.71507063 1640.88555908 961.57836914 C1639.91702572 964.22689969 1638.95036962 966.87611118 1637.98388672 969.52539062 C1629.78396687 991.99464048 1621.50600879 1014.43355425 1613.0625 1036.8125 C1612.53423615 1038.21497482 1612.53423615 1038.21497482 1611.99530029 1039.64578247 C1608.57135877 1048.72906664 1605.11773616 1057.79430663 1601.45703125 1066.78515625 C1601.18885086 1067.44806168 1600.92067047 1068.1109671 1600.6443634 1068.79396057 C1599.43609297 1071.77929452 1598.21345504 1074.75637073 1596.95727539 1077.72192383 C1596.54598389 1078.72892334 1596.13469238 1079.73592285 1595.7109375 1080.7734375 C1595.35306152 1081.62341309 1594.99518555 1082.47338867 1594.62646484 1083.34912109 C1593.09148708 1089.84436215 1595.87457151 1095.84823471 1598.25390625 1101.796875 C1598.58612183 1102.64602478 1598.9183374 1103.49517456 1599.26062012 1104.37005615 C1599.97893172 1106.20470538 1600.70044859 1108.03810224 1601.42483521 1109.87036133 C1603.38374956 1114.82873357 1605.31554829 1119.79766941 1607.25 1124.765625 C1607.64832535 1125.7870459 1608.0466507 1126.8084668 1608.45704651 1127.86083984 C1612.41957168 1138.03906221 1616.26339077 1148.25980767 1620.0625 1158.5 C1620.38936798 1159.38089294 1620.71623596 1160.26178589 1621.05300903 1161.16937256 C1634.33700199 1197.00414148 1647.28904916 1232.95821023 1660 1269 C1660.30832764 1269.87406494 1660.61665527 1270.74812988 1660.93432617 1271.64868164 C1671.98053622 1302.98001687 1682.69993642 1334.4218453 1693.2959671 1365.90799713 C1693.77330092 1367.32637363 1694.2507154 1368.74472299 1694.72820282 1370.16304779 C1708.14440474 1410.01507495 1721.37371515 1449.90809324 1733.89143372 1490.05299377 C1736.25207724 1497.62179781 1738.6376229 1505.18232918 1741.0390625 1512.73828125 C1766.98635268 1594.45488149 1791.30895178 1676.68884125 1912.99395752 2135.65789032 C1913.5586025 2138.0460158 1914.12412268 2140.43393291 1914.68969727 2142.82183838 C1915.5728165 2146.55309826 1916.45204355 2150.28525454 1917.32798576 2154.01820564 C1917.6489222 2155.38459278 1917.97077972 2156.75076396 1918.29364204 2158.11669731 C1918.73597318 2159.98992921 1919.17386898 2161.86420674 1919.61157227 2163.73852539 C1919.85706314 2164.78488663 1920.10255402 2165.83124786 1920.35548401 2166.90931702 C1921.0511925 2170.2454862 1921.51804492 2173.62631442 1922 2177 C1287.74 2177 653.48 2177 0 2177 C9.32159103 2135.05284035 9.32159103 2135.05284035 14.08520508 2115.59521484 C14.25726628 2114.89176626 14.42932749 2114.18831768 14.60660267 2113.46355247 C14.96908963 2111.98170954 15.33179058 2110.49991892 15.69470596 2109.01818085 C16.26548388 2106.68675381 16.83508005 2104.35504068 17.40438843 2102.02325439 C20.25609815 2090.34550905 23.12401254 2078.67178799 26 2067 C26.30386501 2065.76637474 26.30386501 2065.76637474 26.61386871 2064.50782776 C49.04310139 1973.46185283 73.09630986 1882.84901641 182.1650877 1509.82978439 C183.55964332 1505.40155078 184.95021802 1500.97208253 186.33886719 1496.54199219 C196.74793204 1463.34594273 207.46254645 1430.25500907 218.33887482 1397.20929337 C219.29044889 1394.31702343 220.24079462 1391.42435252 221.19085693 1388.53158569 C229.370329 1363.6379176 237.81918449 1338.85113974 246.50239563 1314.12880707 C249.00553203 1306.99751759 251.47102135 1299.85391043 253.91796875 1292.703125 C264.13834728 1262.873568 274.71693562 1233.19109229 285.58300781 1203.59082031 C287.53376702 1198.27555272 289.47525077 1192.9569696 291.41241455 1187.63673401 C298.07109586 1169.35242971 304.78836658 1151.09418103 311.7578125 1132.92578125 C312.00039606 1132.29297619 312.24297962 1131.66017113 312.4929142 1131.00819016 C315.10404904 1124.19756371 317.72499095 1117.39086007 320.36108398 1110.58984375 C321.22126594 1108.35810164 322.08137702 1106.12633222 322.94140625 1103.89453125 C323.53690781 1102.36993034 323.53690781 1102.36993034 324.1444397 1100.81452942 C327.67331336 1091.63214421 328.43072931 1086.81168356 324.72265625 1077.64453125 C324.36555069 1076.72774094 324.00844513 1075.81095062 323.64051819 1074.86637878 C322.86647274 1072.88364556 322.08592364 1070.90344168 321.29962158 1068.92553711 C319.61304483 1064.68151122 317.95907068 1060.42501043 316.3026123 1056.16915894 C315.44822153 1053.97525892 314.59216647 1051.78200635 313.73449707 1049.58938599 C309.76228407 1039.430473 305.91666336 1029.22747461 302.125 1019 C301.80619873 1018.14124268 301.48739746 1017.28248535 301.15893555 1016.39770508 C287.05933058 978.39604682 273.29837815 940.27172553 259.83514404 902.04023743 C257.80056693 896.26385394 255.75479071 890.49159899 253.69921875 884.72265625 C248.167806 869.18309032 242.81589253 853.59482011 237.63500977 837.93481445 C234.15982824 827.43663374 230.6031471 816.96869537 227.0088501 806.51074219 C219.76455832 785.41970279 212.81679268 764.23976228 205.97332764 743.01568604 C204.96341297 739.88664145 203.95102405 736.75840654 202.93798828 733.63037109 C191.02378672 696.83677891 179.38869057 659.95939919 168 623 C167.79620476 622.33884941 167.59240952 621.67769882 167.38243866 620.99651337 C143.45295636 543.35661166 120.61752019 465.38714018 85.95135498 340.48114014 C84.99758533 336.99116437 84.04216334 333.50164435 83.08642578 330.01220703 C71.42676833 287.41993558 60.13627588 244.7317479 49 202 C48.79578178 201.21651939 48.59156357 200.43303879 48.38115692 199.62581635 C33.12953099 141.10083999 18.48982716 82.42887825 4.875 23.5 C4.48974655 21.83387665 4.48974655 21.83387665 4.09671021 20.13409424 C3.39201175 17.07970026 2.69104601 14.02448487 1.9921875 10.96875 C1.78692947 10.07686981 1.58167145 9.18498962 1.37019348 8.26608276 C0 2.23451558 0 2.23451558 0 0 Z " fill="#FE584E" transform="translate(39,45)"/>
<path d="M0 0 C634.26 0 1268.52 0 1922 0 C1917.26093619 21.32578714 1912.52491013 42.607735 1907.33410645 63.82147217 C1906.63325081 66.68746466 1905.93346218 69.55371335 1905.23474121 72.42022705 C1902.504714 83.61715225 1899.75704786 94.80969958 1897 106 C1896.79589256 106.82853989 1896.59178513 107.65707977 1896.38149261 108.51072693 C1883.08462688 162.47216873 1869.30864165 216.29795851 1855 270 C1854.71106747 271.08451195 1854.71106747 271.08451195 1854.41629791 272.19093323 C1838.53943339 331.76832161 1822.1103688 391.19506734 1805.02679443 450.43780518 C1803.9809516 454.06608343 1802.93686216 457.69486282 1801.89306641 461.32373047 C1784.89155733 520.40327261 1767.25654384 579.2958989 1749 638 C1748.52007599 639.54388397 1748.52007599 639.54388397 1748.03045654 641.11895752 C1720.35499874 730.11471696 1691.38182976 818.71507063 1640.88555908 961.57836914 C1639.91702572 964.22689969 1638.95036962 966.87611118 1637.98388672 969.52539062 C1602.6365216 1066.38350552 1602.6365216 1066.38350552 1589.61328125 1096.171875 C1587.34063305 1101.47814864 1585.2850623 1106.87285526 1583.1875 1112.25 C1549.92883613 1197.38034698 1513.82969724 1281.48682077 1460.49169922 1393.89892578 C1458.89445796 1397.21940997 1457.3078842 1400.54485863 1455.72265625 1403.87109375 C1450.57178481 1414.65981719 1445.37437639 1425.39579487 1439.73339844 1435.93774414 C1436.40580743 1442.16928071 1433.25691128 1448.48071279 1430.125 1454.8125 C1425.85751727 1463.41205219 1421.4167363 1471.88844039 1416.77734375 1480.29272461 C1413.8646149 1485.57204566 1410.99476219 1490.87108168 1408.1796875 1496.203125 C1401.33861921 1509.15330058 1394.3894996 1521.98399914 1386.93139648 1534.59423828 C1383.39139556 1540.58423272 1379.98994304 1546.6263306 1376.6875 1552.75 C1370.27013246 1564.58119613 1363.20142749 1576.01993819 1356.15673828 1587.48339844 C1354.12201725 1590.79653832 1352.10474866 1594.12007934 1350.08984375 1597.4453125 C1323.71901865 1640.83260585 1294.99566178 1683.0089125 1263.62109375 1722.93359375 C1262.09554041 1724.87821476 1260.57763232 1726.82850454 1259.0625 1728.78125 C1253.34170174 1736.13871235 1247.43712954 1743.30849363 1241.375 1750.38671875 C1239.99084195 1752.0107451 1238.61873513 1753.64421167 1237.25 1755.28125 C1231.82094067 1761.76606678 1226.24755598 1768.07720943 1220.5 1774.28125 C1218.37428522 1776.59296482 1216.29954949 1778.93355862 1214.25 1781.3125 C1211.54469846 1784.43647915 1208.68131 1787.33959814 1205.734375 1790.234375 C1203.98797581 1792.01224084 1202.36780761 1793.85485395 1200.75 1795.75 C1194.335235 1803.17382915 1187.28653305 1810.0236913 1179.828125 1816.390625 C1177.97062012 1818.02586434 1176.23393991 1819.73481793 1174.5 1821.5 C1170.83698851 1825.21217943 1166.9572283 1828.60626052 1163 1832 C1161.94493606 1832.91883877 1160.89028026 1833.83814629 1159.8359375 1834.7578125 C1152.10834939 1841.47403902 1144.22556633 1847.90112923 1136 1854 C1135.32453125 1854.50144531 1134.6490625 1855.00289062 1133.953125 1855.51953125 C1092.76225624 1885.96817704 1046.99778027 1910.80414898 995.84667969 1918.55761719 C993.8800507 1918.8632374 991.91716783 1919.1936236 989.95800781 1919.54394531 C981.48503345 1921.00498193 973.20970261 1921.31968542 964.625 1921.25 C963.58135788 1921.24484879 963.58135788 1921.24484879 962.51663208 1921.23959351 C934.8930025 1921.08079852 909.12650965 1917.10611606 883 1908 C882.31389648 1907.76168457 881.62779297 1907.52336914 880.92089844 1907.27783203 C842.37893717 1893.72021794 807.44836141 1871.88569152 776 1846 C774.75669922 1844.99839844 774.75669922 1844.99839844 773.48828125 1843.9765625 C755.71870663 1829.60525689 739.06271803 1814.12155569 722.875 1798 C722.09350586 1797.22317871 721.31201172 1796.44635742 720.50683594 1795.64599609 C716.3912846 1791.51890914 712.44671726 1787.30576807 708.64404297 1782.88916016 C706.05284552 1779.91163033 703.33301965 1777.05834886 700.625 1774.1875 C695.99727689 1769.24251138 691.60172182 1764.18772762 687.3671875 1758.8984375 C684.53012436 1755.42467372 681.58108982 1752.05987394 678.625 1748.6875 C673.01468043 1742.25926215 667.6853122 1735.66117884 662.47607422 1728.90576172 C660.88128521 1726.84672715 659.27187709 1724.7997111 657.66015625 1722.75390625 C650.04622438 1713.06836544 642.7237383 1703.21282737 635.56933594 1693.18408203 C634.08577478 1691.1193748 632.58296587 1689.07079724 631.0703125 1687.02734375 C621.23643674 1673.69105805 612.13981505 1659.85914985 603.00318909 1646.0410614 C600.7133407 1642.57861276 598.41444423 1639.12272402 596.09912109 1635.67724609 C595.63334152 1634.98302048 595.16756195 1634.28879486 594.68766785 1633.5735321 C593.79546247 1632.24478464 592.90141943 1630.9172688 592.00532532 1629.59114075 C589 1625.11126944 589 1625.11126944 589 1624 C709.12 1624 829.24 1624 953 1624 C953 1539.52 953 1455.04 953 1368 C969.83 1367.67 986.66 1367.34 1004 1367 C1018.32218873 1366.46830671 1032.63618993 1365.9126474 1046.95196533 1365.25195312 C1049.78046315 1365.12361782 1052.60915242 1365.00101253 1055.43798828 1364.88037109 C1077.34664875 1363.94579197 1099.12669215 1362.71266037 1120.93157959 1360.33319092 C1123.62850917 1360.04033912 1126.32609271 1359.76348656 1129.02587891 1359.49853516 C1198.52442495 1352.66843994 1277.52306999 1338.19134211 1335 1296 C1335.60859863 1295.56220215 1336.21719727 1295.1244043 1336.84423828 1294.67333984 C1346.12573921 1287.98875899 1354.77640094 1280.964418 1363 1273 C1363.5269043 1272.49887695 1364.05380859 1271.99775391 1364.59667969 1271.48144531 C1372.89670641 1263.57548514 1380.19597729 1255.22202827 1387 1246 C1387.64582031 1245.12601563 1388.29164062 1244.25203125 1388.95703125 1243.3515625 C1402.59579261 1224.32502859 1412.960218 1203.60218147 1421.01708984 1181.67333984 C1421.67166611 1179.89300945 1422.33866506 1178.11719683 1423.01806641 1176.34619141 C1425.71129509 1169.22329327 1427.68989731 1162.0176193 1429.5 1154.625 C1429.80260742 1153.39257568 1430.10521484 1152.16015137 1430.41699219 1150.89038086 C1435.04072041 1131.80201519 1437.86824077 1113.03027747 1439.67456055 1093.46411133 C1439.85201008 1091.57526555 1440.03647983 1089.68682054 1440.25598145 1087.80239868 C1441.01728807 1081.03668879 1441.14528534 1074.35133624 1441.1328125 1067.546875 C1441.13424759 1065.78189667 1441.13424759 1065.78189667 1441.13571167 1063.98126221 C1441.13638929 1061.4969477 1441.1345643 1059.01263138 1441.13037109 1056.52832031 C1441.1250749 1052.80269179 1441.13030037 1049.07718703 1441.13671875 1045.3515625 C1441.14310168 1026.42381466 1440.92278283 1007.50451729 1438.6875 988.6875 C1438.48966919 986.99596802 1438.48966919 986.99596802 1438.2878418 985.27026367 C1437.87572567 981.84441385 1437.44338028 978.42193497 1437 975 C1436.86754883 973.97036133 1436.73509766 972.94072266 1436.59863281 971.87988281 C1428.72108117 912.73148657 1406.60259904 853.69860784 1365 810 C1364.46391113 809.43667969 1363.92782227 808.87335937 1363.37548828 808.29296875 C1354.82407433 799.36812036 1346.00750741 791.25949997 1336 784 C1335.38576172 783.55205078 1334.77152344 783.10410156 1334.13867188 782.64257812 C1318.71326791 771.48882449 1302.18572511 762.14885446 1285 754 C1284.2786084 753.65259766 1283.5572168 753.30519531 1282.81396484 752.94726562 C1267.95530956 745.82942345 1252.58893158 740.29468166 1237 735 C1235.81712402 734.5980542 1235.81712402 734.5980542 1234.61035156 734.18798828 C1230.10582857 732.67749601 1225.56660475 731.30778322 1221 730 C1220.12923828 729.74686035 1219.25847656 729.4937207 1218.36132812 729.23291016 C1181.17011575 718.51140048 1142.70285766 711.84332614 1104.25 707.6875 C1103.12517715 707.56539658 1103.12517715 707.56539658 1101.97763062 707.44082642 C1093.25552711 706.50723183 1084.54442454 705.77775378 1075.78155518 705.35734558 C1072.7247403 705.20299207 1069.73765771 704.96148108 1066.70822775 704.51667917 C1036.80919235 700.35075147 1005.73344303 701.69066136 975.63589433 701.68335578 C969.72595905 701.67991604 963.81604484 701.66706834 957.90612318 701.65464286 C945.92158214 701.62974487 933.93704563 701.61343973 921.95248413 701.60269165 C905.74784135 701.58813033 889.5432518 701.56126517 873.33862305 701.5324707 C834.4340977 701.46942828 795.52954654 701.42322472 756.625 701.375 C669.62875 701.25125 582.6325 701.1275 493 701 C493 950.15 493 1199.3 493 1456 C490.55188531 1452.73584709 488.82713644 1449.90736616 487.02001953 1446.29882812 C486.44156281 1445.14821899 485.86310608 1443.99760986 485.26712036 1442.81213379 C484.63881783 1441.55193885 484.01072121 1440.29164122 483.3828125 1439.03125 C482.72344816 1437.7138729 482.06384666 1436.39661448 481.40402222 1435.07946777 C480.01446072 1432.30329679 478.62780432 1429.52569893 477.24316406 1426.74707031 C475.51298803 1423.27557956 473.77585395 1419.80763097 472.03653622 1416.3407135 C464.04133807 1400.39571158 456.27759005 1384.36934561 448.84448242 1368.15429688 C446.0458056 1362.0598586 443.1300068 1356.02603495 440.1875 1350 C434.56824722 1338.39487653 429.33380275 1326.63129565 424.12915039 1314.83642578 C420.00017352 1305.4818586 415.8045937 1296.16233146 411.53930664 1286.86920166 C402.31197744 1266.74339879 393.62403659 1246.39025709 385 1226 C384.63026062 1225.12603577 384.26052124 1224.25207153 383.87957764 1223.35162354 C368.07920269 1185.98215197 352.57703172 1148.47929863 337.8125 1110.6875 C337.46789734 1109.80688904 337.12329468 1108.92627808 336.76824951 1108.01898193 C335.80712854 1105.55946342 334.84990422 1103.09847492 333.89453125 1100.63671875 C333.61326889 1099.91623856 333.33200653 1099.19575836 333.04222107 1098.45344543 C332.03595099 1095.847233 331.07165966 1093.31128052 330.4440918 1090.58520508 C330.2975415 1090.0620874 330.15099121 1089.53896973 330 1089 C329.34 1088.67 328.68 1088.34 328 1088 C327.01259585 1085.51220291 326.12981566 1083.04916086 325.2890625 1080.51171875 C324.75239729 1078.94248656 324.21360008 1077.37398214 323.67285156 1075.80615234 C323.39590454 1075.00240173 323.11895752 1074.19865112 322.83361816 1073.37054443 C321.57359721 1069.78744635 320.21409389 1066.24607026 318.8359375 1062.70703125 C318.56281235 1062.00393326 318.28968719 1061.30083527 318.00828552 1060.57643127 C317.4334604 1059.09836692 316.85804197 1057.62053319 316.28207397 1056.14291382 C299.76780324 1013.71518929 284.27293968 970.88768214 269 928 C268.62335205 926.94288818 268.2467041 925.88577637 267.85864258 924.79663086 C251.04140823 877.5733797 234.94401616 830.10549843 219.17073059 782.5242157 C217.61605441 777.83998996 216.04665356 773.16087284 214.47047424 768.48384094 C204.67898731 739.42917186 195.35868088 710.23831665 186.19042969 680.98144531 C184.14962509 674.47154549 182.09582635 667.96580915 180.0390625 661.4609375 C153.91433889 578.76435149 129.29481261 495.58892973 85.95135498 340.48114014 C84.99758533 336.99116437 84.04216334 333.50164435 83.08642578 330.01220703 C71.42676833 287.41993558 60.13627588 244.7317479 49 202 C48.79578178 201.21651939 48.59156357 200.43303879 48.38115692 199.62581635 C33.12953099 141.10083999 18.48982716 82.42887825 4.875 23.5 C4.48974655 21.83387665 4.48974655 21.83387665 4.09671021 20.13409424 C3.39201175 17.07970026 2.69104601 14.02448487 1.9921875 10.96875 C1.78692947 10.07686981 1.58167145 9.18498962 1.37019348 8.26608276 C0 2.23451558 0 2.23451558 0 0 Z " fill="#55AFFE" transform="translate(39,45)"/>
<path d="M0 0 C130.494375 -0.061875 130.494375 -0.061875 263.625 -0.125 C291.05318848 -0.14320801 318.48137695 -0.16141602 346.74072266 -0.18017578 C380.33862305 -0.18920898 380.33862305 -0.18920898 396.0874939 -0.19088745 C407.76057139 -0.19286585 419.43362332 -0.20144879 431.10669364 -0.21334685 C443.05267702 -0.2253563 454.99864582 -0.22964978 466.944635 -0.2268899 C473.40912719 -0.22559427 479.87358437 -0.22745617 486.3380692 -0.23843026 C554.57401292 -0.34861708 554.57401292 -0.34861708 577 3 C578.87844417 3.16475883 580.75887246 3.30842192 582.640625 3.4296875 C637.20446257 7.10590053 691.97377511 15.76492408 744 33 C744.73831055 33.24298828 745.47662109 33.48597656 746.23730469 33.73632812 C765.42503368 40.10298415 784.28083044 47.61765476 802.18066406 57.04541016 C804.01627667 58.00854023 805.86232252 58.94882564 807.7109375 59.88671875 C821.99016686 67.21338123 835.43333752 76.02210428 848 86 C849.46373047 87.15628906 849.46373047 87.15628906 850.95703125 88.3359375 C866.96061302 101.27836311 881.18073123 116.16187216 893 133 C893.44633789 133.62825684 893.89267578 134.25651367 894.35253906 134.90380859 C923.91629275 176.78395855 939.40141247 227.28429863 945.38305664 277.81738281 C945.68683939 280.36945026 946.00768981 282.91897376 946.33007812 285.46875 C948.98978088 307.06402365 949.23751979 328.70137599 949.25 350.4375 C949.25100708 351.66645996 949.25201416 352.89541992 949.25305176 354.16162109 C949.24266259 372.96723798 948.69526475 391.3690184 946 410 C945.7831958 411.56355225 945.7831958 411.56355225 945.56201172 413.15869141 C939.37166554 456.83388022 926.09765294 501.83317388 900 538 C899.30390625 538.969375 898.6078125 539.93875 897.890625 540.9375 C882.95725541 561.27230115 865.71561201 579.50054113 845 594 C844.35337402 594.45890625 843.70674805 594.9178125 843.04052734 595.390625 C814.62183318 615.35470387 782.03620978 628.04876212 749 638 C747.4523999 638.47348877 747.4523999 638.47348877 745.87353516 638.95654297 C727.50467749 644.53721943 708.83697209 648.40083514 690 652 C688.95618164 652.20222168 687.91236328 652.40444336 686.83691406 652.61279297 C672.79545512 655.29070324 658.62762929 656.96360752 644.4375 658.625 C643.54668732 658.72959534 642.65587463 658.83419067 641.73806763 658.94195557 C635.49621903 659.66923247 629.25040853 660.35054539 623 661 C622.17860535 661.08679016 621.35721069 661.17358032 620.51092529 661.26300049 C601.40983461 663.23672791 582.21744357 663.99260292 563.04150391 664.85986328 C559.2302307 665.03266257 555.41944372 665.21295468 551.60888672 665.40087891 C521.00717597 666.89968388 490.69285844 667 460 667 C460 751.48 460 835.96 460 923 C372.52578514 923.25095062 372.52578514 923.25095062 335.296875 923.35546875 C326.78320307 923.37937392 318.26953118 923.40329589 309.75585938 923.42724609 C308.68956692 923.43024503 307.62327447 923.43324396 306.52467012 923.43633378 C289.55961119 923.48407205 272.59455508 923.53274912 255.62949991 923.58180541 C238.0731665 923.63254932 220.51683023 923.68220941 202.96049118 923.73096704 C192.35131206 923.76046166 181.7421346 923.79037319 171.13296175 923.82205635 C114.08818479 923.99123272 57.04540442 924 0 924 C0 619.08 0 314.16 0 0 Z " fill="#002443" transform="translate(532,746)"/>
<path d="M0 0 C0.87090271 0.00054382 1.74180542 0.00108765 2.63909912 0.00164795 C39.60177935 0.10715191 74.38576118 9.60796484 107.6875 25.375 C108.46528809 25.73932129 109.24307617 26.10364258 110.04443359 26.47900391 C130.44319336 36.10059151 149.59072243 47.93414754 167.6875 61.375 C168.40131836 61.90480469 169.11513672 62.43460937 169.85058594 62.98046875 C178.83789016 69.68610469 187.57392224 76.63090448 196.05322266 83.96728516 C197.81192391 85.48217483 199.5825573 86.98224025 201.35546875 88.48046875 C212.14002097 97.61488692 212.14002097 97.61488692 217.00952148 102.69799805 C218.69205813 104.37955548 220.44161339 105.91294889 222.25390625 107.453125 C227.31004543 111.85004457 232.02449563 116.56562938 236.75 121.3125 C238.03874023 122.59543945 238.03874023 122.59543945 239.35351562 123.90429688 C243.74949738 128.30699518 247.99593482 132.77248755 252.04956055 137.49194336 C254.79265563 140.64554186 257.68784608 143.65433071 260.5625 146.6875 C265.38008232 151.8100247 269.97517105 157.02410531 274.36328125 162.5234375 C276.60984391 165.27972446 278.92862052 167.95023833 281.27929688 170.6171875 C287.09916186 177.22537342 292.58158218 184.00847385 297.88183594 191.03979492 C301.39857729 195.70461152 305.0036307 200.2789269 308.6875 204.8125 C314.79617314 212.37039902 320.44978188 220.22925537 326.0859375 228.14257812 C327.58203249 230.22798858 329.09792229 232.29658858 330.625 234.359375 C340.46196182 247.69658557 349.55357453 261.53402689 358.6965332 275.35083008 C361.36088105 279.3770857 364.03517151 283.39646897 366.7182312 287.41027832 C370.62455288 293.25528889 374.50753462 299.11074752 378.25 305.0625 C378.73702393 305.83609863 379.22404785 306.60969727 379.72583008 307.40673828 C397.81198253 336.26291904 415.10693548 365.62991888 431.6875 395.375 C432.29384277 396.46151855 432.90018555 397.54803711 433.52490234 398.66748047 C464.42312315 454.1212018 493.6822821 510.68654629 519.984375 568.46875 C524.01883611 577.31285915 528.14884644 586.11275421 532.29142761 594.90663147 C538.09285089 607.22317822 543.88358626 619.52237599 549.07324219 632.11303711 C550.89656414 636.53014691 552.82122409 640.87058268 554.875 645.1875 C574.08368948 685.68734747 590.58350672 727.66548945 607.40014648 769.1975708 C608.79808422 772.64794252 610.1988129 776.09717467 611.59960938 779.54638672 C613.90432691 785.22307504 616.20135856 790.9028251 618.49106121 796.58558655 C619.73719574 799.67829813 620.98628365 802.76971909 622.24014282 805.85931396 C623.63773096 809.30555283 625.0251742 812.7557104 626.41015625 816.20703125 C626.82904114 817.23420761 627.24792603 818.26138397 627.67950439 819.31968689 C630.98169306 827.59960151 632.68965794 833.39325031 629.1015625 841.89453125 C628.8137793 842.61310303 628.52599609 843.3316748 628.22949219 844.07202148 C627.27256402 846.45041098 626.29270771 848.81862043 625.3125 851.1875 C624.62661926 852.87855362 623.9422422 854.57021781 623.25927734 856.26245117 C621.81707005 859.82836274 620.36538031 863.39019919 618.90625 866.94921875 C616.74797153 872.21745754 614.62048926 877.49770852 612.5 882.78125 C577.80157512 969.14543528 540.62268307 1054.44237662 500.17919922 1138.27392578 C498.58195796 1141.59440997 496.9953842 1144.91985863 495.41015625 1148.24609375 C490.25928481 1159.03481719 485.06187639 1169.77079487 479.42089844 1180.31274414 C476.09330743 1186.54428071 472.94441128 1192.85571279 469.8125 1199.1875 C465.54501727 1207.78705219 461.1042363 1216.26344039 456.46484375 1224.66772461 C453.5521149 1229.94704566 450.68226219 1235.24608168 447.8671875 1240.578125 C441.02611921 1253.52830058 434.0769996 1266.35899914 426.61889648 1278.96923828 C423.07889556 1284.95923272 419.67744304 1291.0013306 416.375 1297.125 C409.95763246 1308.95619613 402.88892749 1320.39493819 395.84423828 1331.85839844 C393.80951725 1335.17153832 391.79224866 1338.49507934 389.77734375 1341.8203125 C363.40651865 1385.20760585 334.68316178 1427.3839125 303.30859375 1467.30859375 C301.78304041 1469.25321476 300.26513232 1471.20350454 298.75 1473.15625 C293.02920174 1480.51371235 287.12462954 1487.68349363 281.0625 1494.76171875 C279.67834195 1496.3857451 278.30623513 1498.01921167 276.9375 1499.65625 C271.50844067 1506.14106678 265.93505598 1512.45220943 260.1875 1518.65625 C258.06178522 1520.96796482 255.98704949 1523.30855862 253.9375 1525.6875 C251.23219846 1528.81147915 248.36881 1531.71459814 245.421875 1534.609375 C243.67547581 1536.38724084 242.05530761 1538.22985395 240.4375 1540.125 C234.022735 1547.54882915 226.97403305 1554.3986913 219.515625 1560.765625 C217.65812012 1562.40086434 215.92143991 1564.10981793 214.1875 1565.875 C210.52448851 1569.58717943 206.6447283 1572.98126052 202.6875 1576.375 C201.63243606 1577.29383877 200.57778026 1578.21314629 199.5234375 1579.1328125 C191.79584939 1585.84903902 183.91306633 1592.27612923 175.6875 1598.375 C175.01203125 1598.87644531 174.3365625 1599.37789062 173.640625 1599.89453125 C132.44975624 1630.34317704 86.68528027 1655.17914898 35.53417969 1662.93261719 C33.5675507 1663.2382374 31.60466783 1663.5686236 29.64550781 1663.91894531 C21.17253345 1665.37998193 12.89720261 1665.69468542 4.3125 1665.625 C3.26885788 1665.61984879 3.26885788 1665.61984879 2.20413208 1665.61459351 C-25.4194975 1665.45579852 -51.18599035 1661.48111606 -77.3125 1652.375 C-77.99860352 1652.13668457 -78.68470703 1651.89836914 -79.39160156 1651.65283203 C-117.93356283 1638.09521794 -152.86413859 1616.26069152 -184.3125 1590.375 C-185.55580078 1589.37339844 -185.55580078 1589.37339844 -186.82421875 1588.3515625 C-204.59379337 1573.98025689 -221.24978197 1558.49655569 -237.4375 1542.375 C-238.21899414 1541.59817871 -239.00048828 1540.82135742 -239.80566406 1540.02099609 C-243.9212154 1535.89390914 -247.86578274 1531.68076807 -251.66845703 1527.26416016 C-254.25965448 1524.28663033 -256.97948035 1521.43334886 -259.6875 1518.5625 C-264.31522311 1513.61751138 -268.71077818 1508.56272762 -272.9453125 1503.2734375 C-275.78237564 1499.79967372 -278.73141018 1496.43487394 -281.6875 1493.0625 C-287.29781957 1486.63426215 -292.6271878 1480.03617884 -297.83642578 1473.28076172 C-299.43121479 1471.22172715 -301.04062291 1469.1747111 -302.65234375 1467.12890625 C-310.26627562 1457.44336544 -317.5887617 1447.58782737 -324.74316406 1437.55908203 C-326.22672522 1435.4943748 -327.72953413 1433.44579724 -329.2421875 1431.40234375 C-339.07606326 1418.06605805 -348.17268495 1404.23414985 -357.30931091 1390.4160614 C-359.5991593 1386.95361276 -361.89805577 1383.49772402 -364.21337891 1380.05224609 C-364.67915848 1379.35802048 -365.14493805 1378.66379486 -365.62483215 1377.9485321 C-366.51703753 1376.61978464 -367.41108057 1375.2922688 -368.30717468 1373.96614075 C-371.3125 1369.48626944 -371.3125 1369.48626944 -371.3125 1368.375 C-251.1925 1368.375 -131.0725 1368.375 -7.3125 1368.375 C-7.3125 1283.895 -7.3125 1199.415 -7.3125 1112.375 C9.5175 1112.045 26.3475 1111.715 43.6875 1111.375 C58.00968873 1110.84330671 72.32368993 1110.2876474 86.63946533 1109.62695312 C89.46796315 1109.49861782 92.29665242 1109.37601253 95.12548828 1109.25537109 C117.03414875 1108.32079197 138.81419215 1107.08766037 160.61907959 1104.70819092 C163.31600917 1104.41533912 166.01359271 1104.13848656 168.71337891 1103.87353516 C238.21192495 1097.04343994 317.21056999 1082.56634211 374.6875 1040.375 C375.29609863 1039.93720215 375.90469727 1039.4994043 376.53173828 1039.04833984 C385.81323921 1032.36375899 394.46390094 1025.339418 402.6875 1017.375 C403.2144043 1016.87387695 403.74130859 1016.37275391 404.28417969 1015.85644531 C412.58420641 1007.95048514 419.88347729 999.59702827 426.6875 990.375 C427.33332031 989.50101563 427.97914063 988.62703125 428.64453125 987.7265625 C442.28329261 968.70002859 452.647718 947.97718147 460.70458984 926.04833984 C461.35916611 924.26800945 462.02616506 922.49219683 462.70556641 920.72119141 C465.39879509 913.59829327 467.37739731 906.3926193 469.1875 899 C469.49010742 897.76757568 469.79271484 896.53515137 470.10449219 895.26538086 C474.72822041 876.17701519 477.55574077 857.40527747 479.36206055 837.83911133 C479.53951008 835.95026555 479.72397983 834.06182054 479.94348145 832.17739868 C480.70478807 825.41168879 480.83278534 818.72633624 480.8203125 811.921875 C480.82126923 810.74522278 480.82222595 809.56857056 480.82321167 808.35626221 C480.82388929 805.8719477 480.8220643 803.38763138 480.81787109 800.90332031 C480.8125749 797.17769179 480.81780037 793.45218703 480.82421875 789.7265625 C480.83060168 770.79881466 480.61028283 751.87951729 478.375 733.0625 C478.17716919 731.37096802 478.17716919 731.37096802 477.9753418 729.64526367 C477.56322567 726.21941385 477.13088028 722.79693497 476.6875 719.375 C476.55504883 718.34536133 476.42259766 717.31572266 476.28613281 716.25488281 C468.40858117 657.10648657 446.29009904 598.07360784 404.6875 554.375 C404.15141113 553.81167969 403.61532227 553.24835937 403.06298828 552.66796875 C394.51157433 543.74312036 385.69500741 535.63449997 375.6875 528.375 C375.07326172 527.92705078 374.45902344 527.47910156 373.82617188 527.01757812 C358.40076791 515.86382449 341.87322511 506.52385446 324.6875 498.375 C323.9661084 498.02759766 323.2447168 497.68019531 322.50146484 497.32226562 C307.64280956 490.20442345 292.27643158 484.66968166 276.6875 479.375 C275.89891602 479.10703613 275.11033203 478.83907227 274.29785156 478.56298828 C269.79332857 477.05249601 265.25410475 475.68278322 260.6875 474.375 C259.81673828 474.12186035 258.94597656 473.8687207 258.04882812 473.60791016 C220.85761575 462.88640048 182.39035766 456.21832614 143.9375 452.0625 C143.1876181 451.98109772 142.43773621 451.89969543 141.66513062 451.81582642 C132.94302711 450.88223183 124.23192454 450.15275378 115.46905518 449.73234558 C112.41295289 449.57802806 109.42662857 449.33667121 106.39794648 448.89167917 C76.79503763 444.76947813 46.03111012 446.06564513 16.23010874 446.05832577 C9.86396897 446.0545687 3.49785392 446.03938374 -2.86827087 446.02571106 C-13.85128397 446.00362865 -24.83428757 445.98843331 -35.81731796 445.97834396 C-47.31310864 445.96775361 -58.80888246 445.95304825 -70.3046608 445.93306351 C-71.38417265 445.93119021 -71.38417265 445.93119021 -72.48549282 445.92927906 C-76.14161589 445.9229137 -79.79773883 445.91647692 -83.45386173 445.91001268 C-109.22737038 445.86457137 -135.00088451 445.82802997 -160.77441406 445.796875 C-185.78451338 445.76662211 -210.79460157 445.73224297 -235.8046875 445.69238281 C-236.57809264 445.69115181 -237.35149777 445.68992081 -238.14833943 445.6886525 C-245.91648536 445.6762837 -253.68463115 445.66383215 -261.45277685 445.65132002 C-277.27183136 445.62584219 -293.09088672 445.60091605 -308.90994263 445.57632446 C-310.00050669 445.5746281 -310.00050669 445.5746281 -311.11310236 445.57289747 C-359.51288873 445.49767513 -407.91269303 445.43534586 -456.3125 445.375 C-454.94722631 441.15701168 -453.39461888 437.38078271 -451.29296875 433.47265625 C-450.68952637 432.34690186 -450.08608398 431.22114746 -449.46435547 430.0612793 C-448.80987674 428.85318681 -448.15508388 427.64526445 -447.5 426.4375 C-446.82166933 425.17950159 -446.14344811 423.92144417 -445.46533203 422.66333008 C-439.74638876 412.07826396 -433.85400871 401.59492675 -427.88769531 391.14746094 C-426.31492732 388.37927226 -424.76026382 385.60168029 -423.2109375 382.8203125 C-416.52631291 370.84382366 -409.56015327 359.06938481 -402.40600586 347.36987305 C-398.58157806 341.11555751 -394.800755 334.84289028 -391.125 328.5 C-365.41551102 284.33959095 -335.73108616 241.65393299 -304.3125 201.375 C-303.68577393 200.56699951 -303.68577393 200.56699951 -303.04638672 199.74267578 C-289.05216271 181.7020558 -274.52767153 164.01737061 -258.98046875 147.2890625 C-256.94598135 145.06691374 -254.95503856 142.82516216 -252.98046875 140.55078125 C-249.23210521 136.25096355 -245.35442638 132.08366846 -241.4375 127.9375 C-240.38369141 126.82109131 -240.38369141 126.82109131 -239.30859375 125.68212891 C-232.51935974 118.50856903 -225.7124618 111.48880122 -218.2109375 105.0546875 C-216.33279247 103.39295424 -214.56944484 101.66374475 -212.8125 99.875 C-209.14964159 96.16286547 -205.27625633 92.7611235 -201.3125 89.375 C-200.38824219 88.57320313 -199.46398437 87.77140625 -198.51171875 86.9453125 C-189.73167958 79.37399765 -180.58467956 72.33021535 -171.3125 65.375 C-170.67022461 64.88999023 -170.02794922 64.40498047 -169.36621094 63.90527344 C-148.27095804 47.99863928 -125.70218637 34.29322741 -101.60742188 23.41845703 C-100.00314805 22.68902444 -98.40596595 21.94388246 -96.81445312 21.18701172 C-89.40276096 17.70243044 -81.83052366 14.95732403 -74.0625 12.375 C-73.41142273 12.15811523 -72.76034546 11.94123047 -72.08953857 11.71777344 C-48.42021046 3.87874711 -24.9046617 -0.05894101 0 0 Z " fill="#8496CB" transform="translate(999.3125,300.625)"/>
<path d="M0 0 C0.33 0 0.66 0 1 0 C1 242.22 1 484.44 1 734 C-1.44811469 730.73584709 -3.17286356 727.90736616 -4.97998047 724.29882812 C-5.55843719 723.14821899 -6.13689392 721.99760986 -6.73287964 720.81213379 C-7.36118217 719.55193885 -7.98927879 718.29164122 -8.6171875 717.03125 C-9.27655184 715.7138729 -9.93615334 714.39661448 -10.59597778 713.07946777 C-11.98553928 710.30329679 -13.37219568 707.52569893 -14.75683594 704.74707031 C-16.48701197 701.27557956 -18.22414605 697.80763097 -19.96346378 694.3407135 C-27.95866193 678.39571158 -35.72240995 662.36934561 -43.15551758 646.15429688 C-45.9541944 640.0598586 -48.8699932 634.02603495 -51.8125 628 C-57.43175278 616.39487653 -62.66619725 604.63129565 -67.87084961 592.83642578 C-71.99982648 583.4818586 -76.1954063 574.16233146 -80.46069336 564.86920166 C-89.68802256 544.74339879 -98.37596341 524.39025709 -107 504 C-107.36973938 503.12603577 -107.73947876 502.25207153 -108.12042236 501.35162354 C-123.92079731 463.98215197 -139.42296828 426.47929863 -154.1875 388.6875 C-154.53210266 387.80688904 -154.87670532 386.92627808 -155.23175049 386.01898193 C-156.19287146 383.55946342 -157.15009578 381.09847492 -158.10546875 378.63671875 C-158.52736229 377.55599846 -158.52736229 377.55599846 -158.95777893 376.45344543 C-159.96404901 373.847233 -160.92834034 371.31128052 -161.5559082 368.58520508 C-161.7024585 368.0620874 -161.84900879 367.53896973 -162 367 C-162.66 366.67 -163.32 366.34 -164 366 C-163.34 366 -162.68 366 -162 366 C-161.74157066 365.19656914 -161.74157066 365.19656914 -161.47792053 364.37690735 C-159.5756386 358.55629443 -157.4429299 352.85837476 -155.18359375 347.16796875 C-154.81528442 346.23537231 -154.4469751 345.30277588 -154.06750488 344.34191895 C-152.86050084 341.2892491 -151.6493756 338.23823892 -150.4375 335.1875 C-149.80849289 333.60142441 -149.80849289 333.60142441 -149.16677856 331.98330688 C-140.28112179 309.58555619 -131.21402403 287.26454936 -122 265 C-121.62746094 264.09958984 -121.25492187 263.19917969 -120.87109375 262.27148438 C-110.76389064 237.857361 -100.4126071 213.55929614 -89.78996277 189.36506653 C-87.83452332 184.91012187 -85.89113325 180.4503181 -83.9609375 175.984375 C-83.51492188 174.95280273 -83.06890625 173.92123047 -82.609375 172.85839844 C-81.83960157 171.07586139 -81.07114266 169.29275541 -80.3046875 167.50878906 C-77.63605058 161.34009329 -74.80212843 155.25257414 -71.94970703 149.16748047 C-68.73932209 142.31556848 -65.57692688 135.44135716 -62.40716553 128.57058716 C-61.22261002 126.00313385 -60.03735086 123.43600612 -58.85205078 120.86889648 C-54.95563693 112.42716179 -51.07327249 103.97952885 -47.22094727 95.51757812 C-43.56508589 87.49099621 -39.84013877 79.52225637 -35.84521484 71.65844727 C-33.16135517 66.36998932 -30.6235036 61.0202793 -28.13989258 55.63500977 C-21.83636526 42.06124134 -14.86746358 28.79406026 -8 15.5 C-7.21735629 13.98312019 -6.43480385 12.46619328 -5.65234375 10.94921875 C-3.76927417 7.29893886 -1.88499389 3.64928653 0 0 Z " fill="#8596CB" transform="translate(531,767)"/>
<path d="M0 0 C55.59756098 0 55.59756098 0 67.0078125 10.921875 C74.10628091 18.5846568 76.13687938 26.20376117 76.17700195 36.53735352 C76.18357315 37.27958664 76.19014435 38.02181976 76.19691467 38.7865448 C76.2165628 41.23399984 76.22829406 43.68139363 76.23828125 46.12890625 C76.24235678 46.96988295 76.2464323 47.81085964 76.25063133 48.67732048 C76.27146048 53.13261541 76.28577327 57.58787987 76.29516602 62.04321289 C76.30619675 66.61692079 76.34056687 71.1901377 76.38033772 75.76367283 C76.40664268 79.30444668 76.41487029 82.84510622 76.41844749 86.38596916 C76.42328122 88.07027421 76.434802 89.75457529 76.45348549 91.43878365 C76.58714645 104.29090203 75.71354342 115.80676108 66.96484375 126.03515625 C59.85592978 133.14407022 52.98125911 134.92884335 43 138 C28.81 138 14.62 138 0 138 C0 92.46 0 46.92 0 0 Z " fill="#8496CB" transform="translate(992,1135)"/>
</svg>
